<svg width="40" height="40" viewBox="0 0 40 40" fill="none" xmlns="http://www.w3.org/2000/svg">
<circle cx="20" cy="20" r="20" fill="#234AD5"/>
<path d="M28.0163 28.3727C27.4708 28.3727 27.0025 28.1798 26.6113 27.7941C26.2256 27.4029 26.0327 26.9346 26.0327 26.3891C26.0327 25.8492 26.2256 25.3863 26.6113 25.0006C27.0025 24.6149 27.4708 24.4221 28.0163 24.4221C28.5452 24.4221 29.0081 24.6149 29.4048 25.0006C29.8015 25.3863 29.9998 25.8492 29.9998 26.3891C29.9998 26.7528 29.9062 27.0861 29.7188 27.3892C29.537 27.6867 29.2973 27.9264 28.9998 28.1082C28.7023 28.2845 28.3744 28.3727 28.0163 28.3727Z" fill="#FAFAFE"/>
<path d="M26.7706 17.1573H23.2002C23.2112 16.6835 23.1506 16.2647 23.0183 15.901C22.8861 15.5319 22.6878 15.2178 22.4233 14.9589C22.1643 14.6999 21.8475 14.5043 21.4728 14.3721C21.0981 14.2343 20.6766 14.1654 20.2083 14.1654C19.3047 14.1654 18.4754 14.3913 17.7206 14.8432C16.9657 15.295 16.3293 15.9506 15.8114 16.8102C15.2935 17.6642 14.9353 18.6973 14.737 19.9095C14.5441 21.0776 14.5552 22.0556 14.77 22.8435C14.9849 23.6314 15.3651 24.2265 15.9106 24.6287C16.4616 25.0254 17.1476 25.2238 17.9685 25.2238C18.4754 25.2238 18.9576 25.1604 19.4149 25.0337C19.8722 24.9015 20.2882 24.7141 20.6629 24.4717C21.043 24.2237 21.3736 23.9235 21.6546 23.5708C21.9412 23.2182 22.1643 22.8187 22.3241 22.3724H25.9193C25.6934 23.1493 25.3408 23.8987 24.8614 24.6205C24.3876 25.3422 23.8007 25.9869 23.101 26.5544C22.4012 27.1164 21.6051 27.5627 20.7125 27.8933C19.8199 28.2239 18.8418 28.3892 17.7784 28.3892C16.2412 28.3892 14.9216 28.0366 13.8196 27.3313C12.7231 26.6261 11.9324 25.6095 11.4476 24.2816C10.9627 22.9537 10.8718 21.3531 11.1748 19.4797C11.4779 17.667 12.0702 16.1297 12.9518 14.8679C13.8389 13.6007 14.916 12.6392 16.1833 11.9835C17.4561 11.3278 18.8171 11 20.2662 11C21.2745 11 22.1864 11.1377 23.0018 11.4132C23.8173 11.6887 24.5115 12.091 25.0846 12.6199C25.6631 13.1433 26.0984 13.7852 26.3904 14.5456C26.6824 15.306 26.8092 16.1765 26.7706 17.1573Z" fill="#FAFAFE"/>
</svg>
